<mxfile host="app.diagrams.net" modified="2021-06-03T01:23:07.442Z" agent="5.0 (Windows NT 10.0; Win64; x64) AppleWebKit/537.36 (KHTML, like Gecko) Chrome/78.0.3904.97 Safari/537.36" etag="NpiDK4ROGQZdc4vC5a07" version="14.7.4" type="github">
  <diagram id="Q0DGbb_I1ydDhcNUrXhA" name="Page-1">
    <mxGraphModel dx="1359" dy="802" grid="1" gridSize="10" guides="1" tooltips="1" connect="1" arrows="1" fold="1" page="1" pageScale="1" pageWidth="827" pageHeight="1169" math="0" shadow="0">
      <root>
        <mxCell id="0" />
        <mxCell id="1" parent="0" />
        <mxCell id="UZk-8gESVTBLqutghjrP-1" value="这是开始" style="rounded=1;whiteSpace=wrap;html=1;" vertex="1" parent="1">
          <mxGeometry x="80" y="70" width="120" height="60" as="geometry" />
        </mxCell>
      </root>
    </mxGraphModel>
  </diagram>
</mxfile>
